<?xml version="1.0" encoding="UTF-8" standalone="no"?>
<!-- Created with Inkscape (http://www.inkscape.org/) -->

<svg
   xmlns:dc="http://purl.org/dc/elements/1.1/"
   xmlns:cc="http://creativecommons.org/ns#"
   xmlns:rdf="http://www.w3.org/1999/02/22-rdf-syntax-ns#"
   xmlns:svg="http://www.w3.org/2000/svg"
   xmlns="http://www.w3.org/2000/svg"
   xmlns:sodipodi="http://sodipodi.sourceforge.net/DTD/sodipodi-0.dtd"
   xmlns:inkscape="http://www.inkscape.org/namespaces/inkscape"
   width="210mm"
   height="297mm"
   viewBox="0 0 210 297"
   version="1.1"
   id="svg421"
   inkscape:version="0.92.3 (unknown)"
   sodipodi:docname="sailboat.svg">
  <defs
     id="defs415" />
  <sodipodi:namedview
     id="base"
     pagecolor="#ffffff"
     bordercolor="#666666"
     borderopacity="1.0"
     inkscape:pageopacity="0.0"
     inkscape:pageshadow="2"
     inkscape:zoom="0.35"
     inkscape:cx="-95.714286"
     inkscape:cy="560"
     inkscape:document-units="mm"
     inkscape:current-layer="layer1"
     showgrid="false"
     inkscape:window-width="1920"
     inkscape:window-height="1043"
     inkscape:window-x="0"
     inkscape:window-y="0"
     inkscape:window-maximized="1" />
  <metadata
     id="metadata418">
    <rdf:RDF>
      <cc:Work
         rdf:about="">
        <dc:format>image/svg+xml</dc:format>
        <dc:type
           rdf:resource="http://purl.org/dc/dcmitype/StillImage" />
        <dc:title></dc:title>
      </cc:Work>
    </rdf:RDF>
  </metadata>
  <g
     inkscape:label="Layer 1"
     inkscape:groupmode="layer"
     id="layer1">
    <g
       id="g399"
       transform="matrix(0.26458333,0,0,0.26458333,-47.375387,-5.6789133)">
      <path
         inkscape:connector-curvature="0"
         id="path391"
         d="m 408.43448,890.76427 c -11.58007,-2.0558 -24.0241,-7.5569 -37.7769,-16.7001 -10.8544,-7.2162 -12.3939,-9.5415 -3.4592,-5.2247 2.2767,1.1 4.6173,2 5.2014,2 0.584,0 1.8432,0.3948 2.7983,0.8772 13.0885,6.6124 51.55664,10.3748 75.2364,7.3586 12.49889,-1.592 29.31631,-5.5542 31.45,-7.4097 0.5225,-0.4543 1.76611,-0.8261 2.76357,-0.8261 0.99746,0 2.59496,-0.3975 3.55,-0.8833 0.95504,-0.4859 3.08643,-1.4771 4.73643,-2.2029 1.65,-0.7257 3.40703,-1.5227 3.90451,-1.7712 0.49748,-0.2484 0.6124,0.021 0.25538,0.5987 -1.95816,3.1684 -31.9975,19.2587 -35.95442,19.2587 -0.75468,0 -1.68599,0.3139 -2.0696,0.6975 -0.3836,0.3836 -3.7211,1.5291 -7.41666,2.5455 -7.94413,2.185 -34.55235,3.2205 -43.21921,1.6818 z"
         style="fill:#ff0000" />
      <path
         inkscape:connector-curvature="0"
         id="path389"
         d="m 560.52379,890.77527 c -7.40241,-1.3209 -13.01343,-3.3184 -23.58931,-8.3977 -10.16165,-4.8803 -24.61055,-14.6678 -22.62875,-15.3284 0.71706,-0.239 1.80438,0.066 2.41625,0.6779 0.61187,0.6119 1.9225,1.1125 2.9125,1.1125 0.99,0 1.8,0.45 1.8,1 0,0.55 1.035,1 2.3,1 1.265,0 2.7275,0.3581 3.25,0.7959 2.40431,2.0142 17.38545,5.4051 32.95,7.4581 25.69269,3.3888 61.24276,-0.8991 81.01502,-9.7718 5.07365,-2.2768 8.48498,-3.4577 8.48498,-2.9373 0,2.0203 -32.26928,19.4061 -36.08333,19.4407 -0.87084,0.01 -1.89719,0.3283 -2.2808,0.7119 -0.3836,0.3836 -3.7211,1.5291 -7.41666,2.5455 -7.91676,2.1775 -34.55459,3.223 -43.1299,1.6927 z"
         style="fill:#ff0000" />
      <path
         inkscape:connector-curvature="0"
         id="path387"
         d="m 713.05777,890.80627 c -7.49561,-1.181 -16.04348,-4.1965 -25.9726,-9.1625 -12.33914,-6.1715 -28.70799,-18.855 -17.42143,-13.4992 10.04033,4.7644 25.81607,8.892 41.77074,10.9288 24.74938,3.1597 60.32979,-0.6666 77.7391,-8.36 2.33151,-1.0303 4.7098,-1.8733 5.2852,-1.8733 0.5753,0 2.1693,-0.736 3.5421,-1.6355 1.3728,-0.8995 2.7313,-1.4002 3.0188,-1.1126 0.8616,0.8615 -12.48024,9.2528 -21.5852,13.5758 -20.72066,9.8382 -25.83657,11.1502 -45.5,11.6688 -8.25,0.2176 -17.64452,-0.021 -20.87671,-0.5303 z"
         style="fill:#ff0000" />
      <path
         inkscape:connector-curvature="0"
         id="path385"
         d="m 520.36477,273.94848 c -1.54965,-0.047 -3.09915,0.64017 -4.61524,2.06445 -3.02638,2.84314 -2.95547,6.91164 0.18555,10.64454 l 2.5,2.9707 v 26.10547 c 0,22.40163 -0.21024,26.10547 -1.48242,26.10547 -1.26269,0 -1.52219,-3.65429 -1.75,-24.64063 l -0.26758,-24.63867 -4.5,-1.3457 c -5.63809,-1.68475 -26.82098,-1.73587 -33,-0.0801 -8.30422,2.22529 -13.40479,5.72913 -23.5,16.14648 -11.13378,11.48907 -15.41296,14.54869 -20.34961,14.55469 -4.04653,0.005 -9.90075,-2.62281 -11.48047,-5.15234 -1.70307,-2.72705 -2.80494,-2.23742 -2.03906,0.90625 2.40264,9.86194 12.15773,21.8601 20.87305,25.67187 2.19759,0.96114 4.77738,2.15834 5.73242,2.66211 2.33147,1.22977 10.48928,1.169 11.26367,-0.084 0.33992,-0.55 1.49726,-1 2.57227,-1 1.075,0 2.73636,-0.39699 3.6914,-0.88282 13.84153,-7.04123 27.38743,-8.93649 35.75781,-5.00195 4.15763,1.95432 13.47852,10.94051 13.47852,12.99414 0,0.49052 0.45,0.89063 1,0.89063 0.55,0 1,-1.83621 1,-4.08204 0,-2.82222 0.38606,-3.95594 1.25,-3.66796 0.99219,0.33071 1.30125,35.69699 1.50195,171.4707 l 0.25391,171.05273 -3.25391,2.53711 c -10.60005,8.2644 -30.35356,21.91172 -35.75195,24.69922 -1.375,0.7099 -2.725,1.56043 -3,1.89063 -0.71641,0.8601 -5.41124,3.53575 -13.76562,7.84375 -3.99622,2.0606 -6.83763,3.88935 -6.3125,4.06445 1.10376,0.3679 16.65423,-1.09343 36.07812,-3.39063 7.425,-0.8781 16.3125,-1.83334 19.75,-2.12304 l 6.25,-0.52735 v 9.50782 9.50586 l -7.75,0.60546 c -4.2625,0.3324 -49.52789,0.88768 -100.58984,1.23438 l -92.83986,0.62891 -2.6094,2.24414 c -2.5273,2.1739 -2.6361,2.7405 -3.4726,18.125 -0.9184,16.8922 -0.3592,34.83854 1.4082,45.18554 0.5924,3.4675 0.815,6.56777 0.4941,6.88868 -1.0349,1.0349 -21.3957,-5.07872 -28.7519,-8.63282 -4.1479,-2.0041 -5.0729,-1.51838 -2.045,1.07422 6.2434,5.3457 25.4057,16.23514 32.1563,18.27344 10.0725,3.0413 14.7785,3.9173 24,4.4668 16.3664,0.9751 30.0676,-0.91795 42.5,-5.87305 12.5288,-4.9934 21.97569,-9.90145 31.82031,-16.53125 4.36528,-2.9397 6.01214,-3.4707 10.78907,-3.4707 6.53767,0 10.96992,1.40869 23.39062,7.43359 8.35744,4.0539 13.93016,6.08319 24,8.74219 2.2,0.5809 5.35,1.5677 7,2.1914 4.53663,1.7149 41.7836,1.50938 47.5,-0.26172 12.71441,-3.9391 16.41399,-5.31189 25,-9.27929 13.42882,-6.2052 17.6087,-7.1498 29.29297,-6.625 5.61385,0.2521 11.10703,0.94777 12.20703,1.54687 4.16053,2.2663 23.14576,11.01163 26.5,12.20703 1.925,0.686 4.58077,1.76449 5.90234,2.39649 1.62699,0.7781 11.15229,1.14844 29.5,1.14844 h 27.09766 l 16.5,-8.23438 c 17.81485,-8.8918 27.39977,-11.87478 34.41406,-10.70508 2.62351,0.4375 6.41167,2.43629 10.58594,5.58399 10.55023,7.9556 27.29068,15.7757 40.14258,18.7539 13.22779,3.0652 41.34642,0.54736 54.35742,-4.86914 4.4906,-1.8695 16.12542,-7.18056 17.88672,-8.16406 7.0621,-3.9434 8.99568,-5.09024 12.58398,-7.46484 5.075,-3.3584 5.2593,-5.05467 0.2793,-2.57227 -2.0625,1.0281 -6.225,2.675 -9.25,3.6582 -3.025,0.9832 -6.4,2.13204 -7.5,2.55274 -1.8263,0.6984 -5.17379,1.42725 -22.96289,5.00195 -7.1637,1.4395 -45.31186,1.58464 -46.71875,0.17774 -0.61449,-0.6145 2.52608,-4.34205 8.71484,-10.33985 5.32246,-5.1583 11.64769,-11.96129 14.05469,-15.11719 14.629,-19.1802 26.77181,-46.57886 34.44531,-77.72656 1.0901,-4.4251 -0.20552,-6.03515 -4.85742,-6.03515 -3.5756,0 -19.89428,3.47221 -23.67578,5.0371 -1.1,0.4552 -3.35,1.06171 -5,1.34961 -1.65,0.2878 -5.025,0.97053 -7.5,1.51563 -2.475,0.5451 -5.625,1.22055 -7,1.50195 -4.21125,0.8618 -22.06795,3.58234 -30.51172,4.64844 -4.39416,0.5548 -11.13828,1.46363 -14.98828,2.01953 -16.53114,2.387 -36.77604,4.70072 -51.5,5.88672 -6.875,0.5538 -17.9,1.48085 -24.5,2.06055 -14.04468,1.2335 -38.82122,2.88946 -60,4.00976 -38.55648,2.0394 -63.42806,3.27119 -68,3.36719 l -5,0.10352 -0.28516,-10.72266 c -0.32008,-12.1036 -0.97426,-11.1977 8.78516,-12.125 5.74048,-0.5455 28.40293,-3.36477 33,-4.10547 1.925,-0.3102 6.875,-1.04672 11,-1.63672 4.125,-0.5899 9.8625,-1.48503 12.75,-1.99023 11.15772,-1.9519 15.99573,-2.77312 22.75,-3.85742 8.29001,-1.3309 28.12991,-4.92721 34.5,-6.25391 2.475,-0.5155 6.3,-1.17881 8.5,-1.47461 2.2,-0.2958 4.42672,-0.94195 4.94922,-1.43555 0.5225,-0.4937 2.40886,-0.89843 4.1914,-0.89843 1.78255,0 3.51946,-0.45 3.85938,-1 0.33992,-0.55 1.61438,-1 2.83203,-1 2.60727,0 19.21022,-4.13739 25.66797,-6.39649 2.475,-0.8658 5.42133,-1.57789 6.54883,-1.58789 1.1275,-0.008 2.4775,-0.41841 3,-0.91211 0.5225,-0.4936 2.75117,-1.14727 4.95117,-1.45117 2.2,-0.3039 7.15,-1.08949 11,-1.74609 9.11714,-1.5553 52.86364,-1.58392 61.5,-0.041 3.575,0.6386 8.075,1.4113 10,1.7168 1.925,0.3055 4.4,0.91667 5.5,1.35937 1.1,0.4427 6.725,2.2968 12.5,4.1211 13.2524,4.1865 19.5215,7.53706 26.75,14.29296 l 3.25,3.03711 -0.0352,-6.94531 c -0.054,-10.9976 -4.58836,-50.90096 -7.03906,-61.94726 -2.9283,-13.1985 -8.45042,-33.8939 -12.14062,-45.5 -11.3615,-35.7335 -32.52622,-76.3801 -54.67383,-105 -2.34091,-3.025 -6.09172,-7.93485 -8.33594,-10.91211 -4.13367,-5.48393 -31.90303,-33.85069 -39.30859,-40.1543 -6.4439,-5.48503 -13.54343,-11.14878 -19.4668,-15.52734 -15.94298,-11.78508 -19.62094,-14.39218 -21.95117,-15.56641 -1.40219,-0.70659 -5.02383,-2.91123 -8.04883,-4.89844 -8.80543,-5.78456 -21.29358,-12.40033 -41.15625,-21.80273 -9.89575,-4.68436 -29.85511,-12.44911 -42.86328,-16.67578 -6.31452,-2.05175 -12.38047,-4.06896 -13.48047,-4.48243 -1.1,-0.41347 -4.025,-1.30811 -6.5,-1.98828 -2.475,-0.68017 -6.525,-1.82771 -9,-2.54882 -3.85399,-1.1229 -11.3366,-2.89574 -31.5,-7.4629 -2.2,-0.49831 -5.82093,-1.17107 -8.04688,-1.49609 l -4.04882,-0.5918 -1.22266,-19.69531 c -1.8067,-29.07709 -1.65036,-36.4631 0.81836,-38.69726 2.70099,-2.44436 2.51816,-6.0717 -0.45508,-9.04493 -1.51634,-1.51634 -3.06559,-2.29865 -4.61523,-2.3457 z m 5.85547,81.89063 c 0.52585,0 3.15239,2.95441 5.83593,6.56445 2.68354,3.61004 5.44295,7.1786 6.13282,7.93164 0.68987,0.75304 5.22085,7.36308 10.06836,14.6875 11.31364,17.09451 22.31723,36.50952 27.09961,47.81641 3.21708,7.60614 6.09991,14.2159 6.98046,16 0.89783,1.81912 8.4927,25.71981 10.16797,32 0.66022,2.475 1.57636,5.85 2.03711,7.5 1.67691,6.0053 3.83454,23.2941 4.42969,35.5 0.81584,16.7319 -1.21749,39.6303 -4.57227,51.5 -0.62179,2.2 -1.62239,5.8 -2.22265,8 -0.60025,2.2 -1.46165,4.42867 -1.91602,4.95117 -0.45437,0.5225 -0.82617,1.66009 -0.82617,2.52929 0,2.352 -6.5021,17.32657 -11.6875,26.91797 -9.0797,16.7946 -18.95684,30.02028 -35.7207,47.82617 -5.80061,6.1612 -7.03848,7.0258 -7.90821,5.5254 -0.23912,-0.4125 -0.72169,-15.375 -1.07226,-33.25 -0.59991,-30.5882 -1.06847,-48.1045 -3.64649,-136.5 -0.57746,-19.8 -1.48151,-53.1 -2.00976,-74 -0.52824,-20.9 -1.22258,-45.5375 -1.54297,-54.75 -0.36146,-10.39343 -0.22021,-16.75 0.37305,-16.75 z"
         style="fill:#ff0000" />
      <path
         inkscape:connector-curvature="0"
         id="path381"
         d="m 328.43448,704.87597 c -17.3394,-2.8174 -25.2779,-5.7752 -34.03,-12.6792 -5.438,-4.2897 -6.2369,-6.3573 -2.4564,-6.3573 1.3824,0 3.2949,-0.4008 4.25,-0.8906 0.955,-0.4898 3.9864,-1.9523 6.7364,-3.25 6.0929,-2.8751 17.4121,-9.6286 19.2965,-11.5131 0.7571,-0.7571 3.0066,-2.6073 4.9988,-4.1114 11.0974,-8.379 22.0996,-19.4189 38.2198,-38.3509 8.7096,-10.2288 10.7667,-12.9178 22.9849,-30.0457 10.02266,-14.0501 27.05589,-39.8207 27.89831,-42.209 0.21907,-0.6211 1.68157,-3.0104 3.25,-5.3095 1.56843,-2.2991 2.85169,-4.4286 2.85169,-4.7324 0,-0.3037 1.87397,-3.5976 4.16437,-7.3198 2.2904,-3.7222 5.37084,-9.0176 6.84541,-11.7676 1.47457,-2.75 3.72114,-6.8 4.99237,-9 5.79901,-10.0358 33.60898,-64.91008 39.02318,-77 1.23153,-2.75 4.65463,-10.08877 7.6069,-16.30837 2.95228,-6.21961 5.36777,-11.49377 5.36777,-11.72037 0,-0.42946 2.9479,-7.05113 8.44581,-18.97126 1.77573,-3.85 4.29362,-9.7 5.59532,-13 1.30169,-3.3 2.94796,-7.125 3.65837,-8.5 1.05966,-2.05099 1.24754,25.95428 1.04607,155.9281 l -0.24557,158.428 -3,0.9129 c -1.65,0.5021 -4.8,1.2775 -7,1.7232 -2.2,0.4457 -7.6,1.564 -12,2.4851 -9.91515,2.0757 -21.83643,4.3073 -39.75,7.4411 -2.8875,0.5052 -8.4,1.3842 -12.25,1.9534 -3.85,0.5693 -8.575,1.2789 -10.5,1.5771 -14.5038,2.2465 -36.4281,3.7794 -58.5,4.0901 -21.8607,0.3078 -27.8309,0.069 -37.5,-1.5025 z"
         style="fill:#ff0000" />
    </g>
  </g>
</svg>
